<?xml version="1.0" encoding="utf-8"?>
<!-- Generator: Adobe Illustrator 13.0.2, SVG Export Plug-In . SVG Version: 6.00 Build 14948)  -->
<!DOCTYPE svg PUBLIC "-//W3C//DTD SVG 1.1//EN" "http://www.w3.org/Graphics/SVG/1.1/DTD/svg11.dtd">
<svg version="1.1" id="Layer_1" xmlns="http://www.w3.org/2000/svg" xmlns:xlink="http://www.w3.org/1999/xlink" x="0px" y="0px"
	 width="540px" height="180px" viewBox="0 0 540 180" enable-background="new 0 0 540 180" xml:space="preserve">
<rect fill="#FFFFFF" width="540" height="180"/>
<g>
	<g>
		<path fill="#033CD2" d="M62.894,117.964c-11.052,0-21.119-5.501-21.119-11.542c0-3.158,2.304-5.631,5.245-5.631
			c2.023,0,3.717,1.184,5.513,2.436c2.592,1.809,5.529,3.855,10.652,3.855c5.14,0,8.21-2.647,8.21-5.209
			c0-3.416-5.271-5.607-10.852-7.928c-7.8-3.241-16.64-6.917-16.64-15.882c0-10.576,9.934-16.283,19.282-16.283
			c7.889,0,18.894,4.132,18.894,10.861c0,2.526-1.762,5.244-5.632,5.244c-2.068,0-3.556-1.125-4.997-2.21
			c-1.87-1.414-3.992-3.015-8.264-3.015c-1.209,0-7.242,0.227-7.242,4.724c0,2.731,4.881,4.615,10.047,6.611
			c7.773,3.001,17.445,6.735,17.445,16.331C83.435,112.442,72.786,117.964,62.894,117.964L62.894,117.964z"/>
		<path fill="#00BEFF" d="M63.185,63.542c7.066,0,17.133,3.775,17.133,9.099c0,1.839-1.258,3.484-3.872,3.484
			c-3.678,0-5.131-5.227-13.262-5.227c-4.84,0-9.002,2.129-9.002,6.485c0,9.002,27.491,8.036,27.491,22.941
			c0,10.746-9.196,15.877-18.78,15.877c-10.841,0-19.359-5.422-19.359-9.779c0-2.322,1.646-3.871,3.484-3.871
			c3.775,0,6.873,6.291,16.166,6.291c6.195,0,9.97-3.484,9.97-6.969c0-10.066-27.492-9.486-27.492-23.812
			C45.664,68.575,54.57,63.542,63.185,63.542 M63.185,60.021c-10.2,0-21.042,6.323-21.042,18.041
			c0,10.142,9.828,14.227,17.724,17.51c4.579,1.903,9.768,4.061,9.768,6.302c0,1.409-2.297,3.449-6.45,3.449
			c-4.569,0-7.15-1.801-9.646-3.541c-1.939-1.353-3.944-2.75-6.52-2.75c-3.928,0-7.004,3.246-7.004,7.391
			c0,7.085,10.691,13.299,22.879,13.299c10.74,0,22.3-6.069,22.3-19.396c0-10.801-10.733-14.946-18.569-17.973
			c-3.337-1.289-8.922-3.445-8.922-4.968c0-2.822,4.567-2.965,5.482-2.965c3.682,0,5.393,1.292,7.204,2.66
			c1.593,1.203,3.399,2.567,6.058,2.567c4.283,0,7.392-2.946,7.392-7.004C83.838,64.515,71.626,60.021,63.185,60.021L63.185,60.021z
			"/>
	</g>
	<g>
		<path fill="#033CD2" d="M117.488,117.964c-10.724,0-22.186-5.855-22.186-22.285V68.09c0-3.773,2.419-6.31,6.021-6.31
			c3.6,0,6.019,2.537,6.019,6.31v27.3c0,7.978,3.224,11.692,10.146,11.692c6.923,0,10.146-3.715,10.146-11.692v-27.3
			c0-3.773,2.419-6.31,6.021-6.31c3.6,0,6.019,2.537,6.019,6.31v27.589C139.673,112.108,128.212,117.964,117.488,117.964
			L117.488,117.964z"/>
		<path fill="#00BEFF" d="M133.654,63.542c2.613,0,4.259,1.742,4.259,4.549v27.588c0,15.102-10.067,20.523-20.424,20.523
			c-10.358,0-20.426-5.422-20.426-20.523V68.091c0-2.807,1.646-4.549,4.26-4.549c2.613,0,4.258,1.742,4.258,4.549V95.39
			c0,8.809,3.872,13.453,11.907,13.453c8.034,0,11.906-4.645,11.906-13.453V68.091C129.395,65.284,131.041,63.542,133.654,63.542
			 M133.654,60.021c-4.58,0-7.779,3.318-7.779,8.069V95.39c0,8.753-4.239,9.934-8.386,9.934c-4.147,0-8.387-1.181-8.387-9.934
			V68.091c0-4.751-3.199-8.069-7.778-8.069c-4.581,0-7.78,3.318-7.78,8.069v27.588c0,17.728,12.37,24.043,23.946,24.043
			c11.575,0,23.944-6.315,23.944-24.043V68.091C141.433,63.34,138.234,60.021,133.654,60.021L133.654,60.021z"/>
	</g>
	<g>
		<path fill="#033CD2" d="M175.375,138.289c-8.494,0-21.508-4.995-21.508-11.15c0-2.758,1.672-5.729,5.343-5.729
			c2.021,0,3.766,1.074,5.785,2.32c2.802,1.726,5.98,3.681,11.057,3.681c10.828,0,12.216-9.427,12.274-13.815
			c-3.037,2.816-7.039,4.368-11.498,4.368c-16.027,0-24.413-14.132-24.413-28.092c0-13.958,8.386-28.09,24.413-28.09
			c4.428,0,8.694,1.906,11.688,4.32c0.654-2.638,2.951-4.32,6.123-4.32c2.776,0,5.729,2.078,5.729,5.924v44.235
			C200.367,127.945,190.555,138.289,175.375,138.289L175.375,138.289z M176.827,72.66c-9.133,0-12.374,9.271-12.374,17.21
			s3.24,17.21,12.374,17.21c9.13,0,12.371-9.271,12.371-17.21S185.958,72.66,176.827,72.66L176.827,72.66z"/>
		<path fill="#00BEFF" d="M194.637,63.542c1.646,0,3.969,1.162,3.969,4.163v44.236c0,15.295-9.293,24.588-23.232,24.588
			c-8.809,0-19.747-5.033-19.747-9.389c0-1.742,0.871-3.969,3.582-3.969c3.872,0,7.647,6,16.843,6
			c10.842,0,14.037-8.518,14.037-15.875v-4.453h-0.194c-2.614,4.453-7.26,7.359-13.068,7.359c-14.52,0-22.651-12.682-22.651-26.332
			c0-13.648,8.131-26.329,22.651-26.329c5.517,0,10.841,3.388,13.068,6.486h0.194v-2.323
			C190.088,64.703,192.314,63.542,194.637,63.542 M176.826,108.843c10.454,0,14.133-10.26,14.133-18.972
			c0-8.711-3.679-18.972-14.133-18.972c-10.455,0-14.133,10.261-14.133,18.972C162.693,98.583,166.372,108.843,176.826,108.843
			 M194.637,60.021c-3.035,0-5.485,1.289-6.859,3.399c-3.083-1.981-6.96-3.399-10.952-3.399c-17.182,0-26.171,15.016-26.171,29.849
			c0,14.834,8.99,29.851,26.171,29.851c3.423,0,6.604-0.83,9.352-2.385c-0.847,4.074-3.355,8.314-10.127,8.314
			c-4.58,0-7.531-1.818-10.135-3.422c-2.153-1.326-4.188-2.578-6.708-2.578c-4.115,0-7.102,3.149-7.102,7.488
			c0,7.488,13.898,12.908,23.267,12.908c7.881,0,14.584-2.642,19.382-7.641c4.821-5.021,7.37-12.1,7.37-20.467V67.704
			C202.126,62.714,198.268,60.021,194.637,60.021L194.637,60.021z M176.826,105.323c-10.101,0-10.613-12.872-10.613-15.453
			s0.512-15.452,10.613-15.452s10.613,12.872,10.613,15.452S186.927,105.323,176.826,105.323L176.826,105.323z"/>
	</g>
	<g>
		<path fill="#033CD2" d="M256.106,117.964c-2.625,0-5.28-1.728-5.68-5.045c-3.49,3.315-7.752,5.045-12.52,5.045
			c-16.024,0-24.411-14.132-24.411-28.093c0-13.959,8.386-28.091,24.411-28.091c4.753,0,8.743,1.484,12.563,4.743
			c0.52-3.119,3.092-4.743,5.637-4.743c2.776,0,5.728,2.076,5.728,5.924v44.334C261.834,115.888,258.882,117.964,256.106,117.964
			L256.106,117.964z M237.906,72.66c-9.131,0-12.372,9.271-12.372,17.211s3.241,17.211,12.372,17.211
			c9.133,0,12.374-9.271,12.374-17.211S247.04,72.66,237.906,72.66L237.906,72.66z"/>
		<path fill="#00BEFF" d="M256.106,63.542c1.646,0,3.968,1.162,3.968,4.163v44.334c0,3.002-2.322,4.164-3.968,4.164
			c-1.743,0-3.97-1.162-3.97-4.164v-3.582h-0.193c-3.678,5.227-8.518,7.746-14.036,7.746c-14.521,0-22.651-12.682-22.651-26.332
			c0-13.648,8.13-26.329,22.651-26.329c5.905,0,10.067,2.517,14.036,6.873h0.193v-2.71
			C252.136,64.703,254.363,63.542,256.106,63.542 M237.907,108.843c10.455,0,14.134-10.26,14.134-18.972
			c0-8.711-3.679-18.972-14.134-18.972s-14.133,10.261-14.133,18.972C223.774,98.583,227.452,108.843,237.907,108.843
			 M256.106,60.021c-2.478,0-5.062,1.254-6.454,3.637c-3.564-2.488-7.349-3.637-11.746-3.637c-17.181,0-26.171,15.016-26.171,29.849
			c0,14.834,8.99,29.851,26.171,29.851c4.33,0,8.272-1.291,11.662-3.785c1.37,2.479,4.009,3.785,6.538,3.785
			c3.63,0,7.488-2.692,7.488-7.684V67.704C263.594,62.714,259.736,60.021,256.106,60.021L256.106,60.021z M237.907,105.323
			c-10.101,0-10.613-12.872-10.613-15.453s0.512-15.452,10.613-15.452c10.102,0,10.614,12.872,10.614,15.452
			S248.009,105.323,237.907,105.323L237.907,105.323z"/>
	</g>
	<g>
		<path fill="#033CD2" d="M282.824,117.962c-3.601,0-6.021-2.537-6.021-6.312V68.092c0-3.774,2.42-6.312,6.021-6.312
			c3.287,0,5.59,2.118,5.964,5.359c2.535-2.849,6.101-5.359,10.104-5.359c3.768,0,6.503,2.572,6.503,6.117
			c0,2.326-1.173,5.32-6.759,6.375c-2.963,0.514-9.795,2.787-9.795,12.889v24.489C288.841,115.425,286.422,117.962,282.824,117.962
			L282.824,117.962z"/>
		<path fill="#00BEFF" d="M298.891,63.542c3,0,4.744,1.936,4.744,4.355c0,2.42-1.744,3.97-5.326,4.647
			c-5.033,0.871-11.229,4.646-11.229,14.618v24.49c0,2.807-1.645,4.551-4.258,4.551c-2.615,0-4.26-1.744-4.26-4.551V68.091
			c0-2.807,1.645-4.549,4.26-4.549c2.613,0,4.258,1.742,4.258,4.549v4.356h0.195C289.209,68.479,293.954,63.542,298.891,63.542
			 M298.891,60.021c-3.516,0-6.71,1.665-9.284,3.875c-1.285-2.396-3.728-3.875-6.784-3.875c-4.58,0-7.779,3.318-7.779,8.069v43.561
			c0,4.752,3.199,8.07,7.779,8.07c4.579,0,7.777-3.318,7.777-8.07v-24.49c0-8.45,5.206-10.612,8.31-11.149
			c0.018-0.003,0.035-0.006,0.054-0.01c7.128-1.347,8.191-5.657,8.191-8.105C307.155,63.333,303.68,60.021,298.891,60.021
			L298.891,60.021z"/>
	</g>
	<path fill="#969696" d="M324.831,111.651c0,2.807-1.645,4.551-4.258,4.551s-4.26-1.744-4.26-4.551V45.44
		c0-2.807,1.646-4.55,4.26-4.55s4.258,1.743,4.258,4.55V111.651z"/>
	<path fill="#969696" d="M385.913,112.038c0,3.002-2.324,4.164-3.969,4.164c-1.742,0-3.969-1.162-3.969-4.164v-3.582h-0.193
		c-3.68,5.227-8.52,7.746-14.037,7.746c-14.52,0-22.65-12.682-22.65-26.332c0-13.648,8.131-26.329,22.65-26.329
		c5.906,0,10.066,2.517,14.037,6.873h0.193v-2.71c0-3.001,2.227-4.163,3.969-4.163c1.645,0,3.969,1.162,3.969,4.163V112.038z
		 M363.745,108.843c10.455,0,14.133-10.26,14.133-18.972c0-8.711-3.678-18.972-14.133-18.972c-10.453,0-14.133,10.261-14.133,18.972
		C349.612,98.583,353.292,108.843,363.745,108.843z"/>
	<path fill="#969696" d="M404.788,45.44c0-2.807,1.646-4.55,4.26-4.55s4.26,1.743,4.26,4.55v25.071h0.191
		c2.227-3.195,6.971-6.97,13.746-6.97c13.941,0,21.975,12.681,21.975,26.329c0,13.65-8.033,26.332-21.975,26.332
		c-6.775,0-11.324-2.422-13.746-7.068h-0.191v2.518c0,2.807-1.646,4.551-4.26,4.551s-4.26-1.744-4.26-4.551V45.44z M426.569,108.843
		c10.453,0,14.131-10.26,14.131-18.972c0-8.711-3.678-18.972-14.131-18.972c-10.455,0-14.135,10.261-14.135,18.972
		C412.434,98.583,416.114,108.843,426.569,108.843z"/>
	<path fill="#969696" d="M481.84,63.542c7.066,0,17.135,3.775,17.135,9.099c0,1.839-1.26,3.484-3.873,3.484
		c-3.678,0-5.131-5.227-13.262-5.227c-4.84,0-9.002,2.129-9.002,6.485c0,9.002,27.492,8.036,27.492,22.941
		c0,10.746-9.197,15.877-18.779,15.877c-10.842,0-19.361-5.422-19.361-9.779c0-2.322,1.645-3.871,3.484-3.871
		c3.775,0,6.873,6.291,16.166,6.291c6.195,0,9.971-3.484,9.971-6.969c0-10.066-27.492-9.486-27.492-23.812
		C464.319,68.575,473.225,63.542,481.84,63.542z"/>
</g>
</svg>
