<svg height="52.916668mm" viewBox="0 0 52.916668 52.916668" width="52.916668mm" xmlns="http://www.w3.org/2000/svg"><g transform="translate(0 -244.08333)"><path d="m .77063102 244.85396h51.375404v51.375404h-51.375404z" fill="none" stroke="#06f" stroke-linejoin="round" stroke-width="1.54126203"/><g fill="#06f" stroke-width=".26458332" transform="matrix(.5468884 0 0 .5468884 -31.612263 183.92785)"><path d="m62.670974 187.78q0 1.4993.423334 2.52236.440972 1.00542 1.146527 1.56986.723195.54681 1.552223.77611.846666.21167 1.74625.21167.899583 0 1.728611-.21167.846667-.2293 1.552222-.77611.723195-.56444 1.146528-1.56986.440972-1.02306.440972-2.52236v-6.86153q0-.38805-.211666-.59972-.211667-.22931-.564445-.22931-.352778 0-.564444.22931-.211667.21167-.211667.59972v7.46125q0 1.46403-.917222 2.3107-.899584.82902-2.398889.82902-1.499306 0-2.416528-.82902-.899583-.84667-.899583-2.3107v-7.46125q0-.38805-.211667-.59972-.211667-.22931-.564445-.22931-.352777 0-.564444.22931-.211667.21167-.211667.59972z"/><path d="m75.917229 188.06222q0-.635.141111-1.23472.141111-.59972.440972-1.11125.3175-.51153.811389-.81139.493889-.29986 1.181805-.29986.687917 0 1.181806.29986.493889.29986.79375.81139.3175.51153.458611 1.11125.141111.59972.141111 1.23472 0 .635-.141111 1.23472-.141111.59973-.458611 1.11125-.299861.51153-.79375.81139-.493889.29986-1.181806.29986-.687916 0-1.181805-.29986-.493889-.29986-.811389-.81139-.299861-.51152-.440972-1.11125-.141111-.59972-.141111-1.23472zm-1.393473 7.67292q0 .38805.211667.59972.211667.22931.564445.22931.352777 0 .564444-.22931.211667-.21167.211667-.59972v-4.14514h.03528q.352778.51153 1.005417.89958.652639.37042 1.499306.37042.934861 0 1.675694-.38806.740834-.38805 1.27-1.05833.529167-.68792.79375-1.55222.264584-.86431.264584-1.79917 0-.93486-.282223-1.79917-.264583-.8643-.776111-1.53458-.511528-.68792-1.27-1.07597-.740833-.38806-1.675694-.38806-1.834445 0-2.504723 1.28764h-.03528v-.45861q0-.38805-.211667-.59972-.211667-.22931-.564444-.22931-.352778 0-.564445.22931-.211667.21167-.211667.59972z"/><path d="m85.823947 179.96597q0-.38805-.211667-.59972-.211667-.22931-.564445-.22931-.352777 0-.564444.22931-.211667.21167-.211667.59972v12.065q0 .38806.211667.61736.211667.21167.564444.21167.352778 0 .564445-.21167.211667-.2293.211667-.61736z"/><path d="m87.448929 188.06222q0 .93486.264583 1.79917.282222.8643.811389 1.55222.546806.67028 1.305278 1.05833.776111.38806 1.74625.38806.970139 0 1.728611-.38806.776111-.38805 1.305278-1.05833.546806-.68792.811389-1.55222.282222-.86431.282222-1.79917 0-.93486-.282222-1.79917-.264583-.8643-.811389-1.53458-.529167-.68792-1.305278-1.07597-.758472-.38806-1.728611-.38806-.970139 0-1.74625.38806-.758472.38805-1.305278 1.07597-.529167.67028-.811389 1.53458-.264583.86431-.264583 1.79917zm1.552222 0q0-.635.141111-1.23472.141111-.59972.440972-1.11125.317501-.51153.811389-.81139.493889-.29986 1.181806-.29986.687917 0 1.181806.29986.493888.29986.79375.81139.3175.51153.458611 1.11125.141111.59972.141111 1.23472 0 .635-.141111 1.23472-.141111.59973-.458611 1.11125-.299862.51153-.79375.81139-.493889.29986-1.181806.29986-.687917 0-1.181806-.29986-.493888-.29986-.811389-.81139-.299861-.51152-.440972-1.11125-.141111-.59972-.141111-1.23472z"/><path d="m105.08975 184.02292q0-.37042-.22931-.56445-.2293-.19403-.49389-.19403-.28222 0-.51153.19403-.21166.19403-.21166.56445v.49388h-.0353q-.56444-.635-1.18181-.93486-.59972-.3175-1.37583-.3175-.97014 0-1.746249.38806-.758472.38805-1.305277 1.07597-.529167.67028-.811389 1.53458-.264584.86431-.264584 1.79917 0 .93486.264584 1.79917.282222.8643.811389 1.55222.546805.67028 1.305277 1.05833.776109.38806 1.746249.38806 1.56986 0 2.55764-1.41111h.0353v.65264q0 .37041.21166.56444.22931.19403.51153.19403.26459 0 .49389-.19403.22931-.19403.22931-.56444zm-6.614586 4.0393q0-.635.141111-1.23472.141111-.59972.440972-1.11125.3175-.51153.811389-.81139.493884-.29986 1.181804-.29986.68792 0 1.18181.29986.49389.29986.79375.81139.3175.51153.45861 1.11125.14111.59972.14111 1.23472 0 .635-.14111 1.23472-.14111.59973-.45861 1.11125-.29986.51153-.79375.81139-.49389.29986-1.18181.29986-.68792 0-1.181804-.29986-.493889-.29986-.811389-.81139-.299861-.51152-.440972-1.11125-.141111-.59972-.141111-1.23472z"/><path d="m113.44424 188.06222q0 .635-.14111 1.23472-.14111.59973-.45861 1.11125-.29986.51153-.79375.81139-.49389.29986-1.18181.29986-.68791 0-1.1818-.29986-.49389-.29986-.81139-.81139-.29986-.51152-.44097-1.11125-.14111-.59972-.14111-1.23472 0-.635.14111-1.23472.14111-.59972.44097-1.11125.3175-.51153.81139-.81139.49389-.29986 1.1818-.29986.68792 0 1.18181.29986.49389.29986.79375.81139.3175.51153.45861 1.11125.14111.59972.14111 1.23472zm-.15875 3.96875q0 .38806.21167.61736.21167.21167.56444.21167.35278 0 .56445-.21167.21166-.2293.21166-.61736v-12.065q0-.38805-.21166-.59972-.21167-.22931-.56445-.22931-.35277 0-.56444.22931-.21167.21167-.21167.59972v4.56847h-.0353q-.35277-.51152-1.00541-.88194-.65264-.38806-1.49931-.38806-.93486 0-1.67569.38806-.74084.38805-1.27 1.07597-.51153.67028-.79375 1.53458-.26459.86431-.26459 1.79917 0 .93486.26459 1.79917.28222.8643.79375 1.55222.51153.67028 1.25236 1.05833.75847.38806 1.69333.38806 1.83445 0 2.50472-1.28764h.0353z"/><path d="m122.92763 184.09347q0-.38805-.21167-.59972-.21167-.22931-.56444-.22931-.35278 0-.56445.22931-.21167.21167-.21167.59972v7.9375q0 .38806.21167.61736.21167.21167.56445.21167.35277 0 .56444-.21167.21167-.2293.21167-.61736zm-1.72861-3.05153q0 .38806.28222.67028.28222.28222.67028.28222.38805 0 .67027-.28222.28223-.28222.28223-.67028 0-.38805-.28223-.67027-.28222-.28223-.67027-.28223-.38806 0-.67028.28223-.28222.28222-.28222.67027z"/><path d="m124.55261 188.06222q0 .9525.26458 1.81681.26458.8643.79375 1.53458.52917.67028 1.32292 1.05833.81139.38806 1.85208.38806 1.12889 0 1.79917-.37042.67027-.37041.67027-.84666 0-.65264-.59972-.65264-.19403 0-.56444.19402-.29986.15875-.59972.24695-.28223.0882-.70556.0882-.68792 0-1.19944-.29986-.51153-.29986-.84667-.81139-.33514-.51152-.49389-1.11125-.14111-.61736-.14111-1.23472 0-.61736.14111-1.21708.15875-.61736.49389-1.12889.33514-.51153.84667-.81139.51152-.29986 1.19944-.29986.40569 0 .65264.0882.26458.0706.56444.21167.4057.19403.67028.19403.26458 0 .44097-.19403.19403-.21167.19403-.45861 0-.49389-.68792-.82903-.68791-.35278-1.83444-.35278-1.04069 0-1.85208.38806-.79375.38805-1.32292 1.05833-.52917.67028-.79375 1.53459-.26458.8643-.26458 1.8168z"/><path d="m132.37298 188.06222q0 .93486.26458 1.79917.28222.8643.81139 1.55222.5468.67028 1.30528 1.05833.77611.38806 1.74625.38806.97014 0 1.72861-.38806.77611-.38805 1.30528-1.05833.5468-.68792.81138-1.55222.28223-.86431.28223-1.79917 0-.93486-.28223-1.79917-.26458-.8643-.81138-1.53458-.52917-.68792-1.30528-1.07597-.75847-.38806-1.72861-.38806-.97014 0-1.74625.38806-.75848.38805-1.30528 1.07597-.52917.67028-.81139 1.53458-.26458.86431-.26458 1.79917zm1.55222 0q0-.635.14111-1.23472.14111-.59972.44097-1.11125.3175-.51153.81139-.81139.49389-.29986 1.18181-.29986.68791 0 1.1818.29986.49389.29986.79375.81139.3175.51153.45861 1.11125.14111.59972.14111 1.23472 0 .635-.14111 1.23472-.14111.59973-.45861 1.11125-.29986.51153-.79375.81139-.49389.29986-1.1818.29986-.68792 0-1.18181-.29986-.49389-.29986-.81139-.81139-.29986-.51152-.44097-1.11125-.14111-.59972-.14111-1.23472z"/><path d="m142.25268 192.03097q0 .38806.21166.61736.21167.21167.56445.21167.35278 0 .56444-.21167.21167-.2293.21167-.61736v-5.11528q0-1.14652.65264-1.72861.65264-.58208 1.51694-.58208.86431 0 1.51695.58208.65264.58209.65264 1.72861v5.11528q0 .38806.21166.61736.21167.21167.56445.21167.35278 0 .56444-.21167.21167-.2293.21167-.61736v-5.20347q0-.9525-.29986-1.64042-.28222-.68791-.77611-1.11125-.47625-.42333-1.0407-.61736-.56444-.19403-1.14653-.19403-.74083 0-1.42875.29986-.67027.29987-1.16416.93487l-.0353-.0353v-.37042q0-.38805-.21167-.59972-.21166-.22931-.56444-.22931-.35278 0-.56445.22931-.21166.21167-.21166.59972z"/></g><g display="block" transform="matrix(.49227382 0 0 .49227382 12.059323 251.35298)"><path d="m1.75 20.038l6.693 1.828v30.715l41.624-.001v-30.714l6.683-1.827-27.502-18.039z" display="inline" fill="#fff" stroke="#06f" stroke-linejoin="round" stroke-width="3.13090396"/><g display="inline" fill="none" stroke="#06f" stroke-width="2.2750001"><path d="m15.204 19.812v21.377h27.837v-13.612l-7.76-7.765z"/><path d="m35.281 19.812v7.765h7.76"/></g><path d="m29.206 27.798c-4.067 0-7.456 4.056-7.456 4.056 0 0 3.389 4.076 7.456 4.074 4.069-.004 7.458-4.078 7.458-4.078 0 0-3.389-4.055-7.458-4.052zm0 6.917c-1.575 0-2.852-1.277-2.852-2.853 0-1.572 1.277-2.853 2.852-2.853 1.573 0 2.85 1.28 2.85 2.853 0 1.576-1.277 2.853-2.85 2.853z" display="inline" fill="#06f"/><circle cx="29.207001" cy="31.863001" display="inline" fill="#06f" r="1.294"/></g></g></svg>