<?xml version="1.0" encoding="UTF-8" standalone="no"?>
<!-- Created with Inkscape (http://www.inkscape.org/) -->

<svg
   xmlns:dc="http://purl.org/dc/elements/1.1/"
   xmlns:cc="http://creativecommons.org/ns#"
   xmlns:rdf="http://www.w3.org/1999/02/22-rdf-syntax-ns#"
   xmlns:svg="http://www.w3.org/2000/svg"
   xmlns="http://www.w3.org/2000/svg"
   xmlns:sodipodi="http://sodipodi.sourceforge.net/DTD/sodipodi-0.dtd"
   xmlns:inkscape="http://www.inkscape.org/namespaces/inkscape"
   width="52.916668mm"
   height="52.916668mm"
   viewBox="0 0 52.916668 52.916668"
   version="1.1"
   id="svg8"
   inkscape:version="0.92pre2 r"
   sodipodi:docname="upload_normal.svg">
  <defs
     id="defs2" />
  <sodipodi:namedview
     id="base"
     pagecolor="#ffffff"
     bordercolor="#666666"
     borderopacity="1.0"
     inkscape:pageopacity="0.0"
     inkscape:pageshadow="2"
     inkscape:zoom="2"
     inkscape:cx="99.03832"
     inkscape:cy="125.64821"
     inkscape:document-units="mm"
     inkscape:current-layer="layer1"
     showgrid="false"
     inkscape:window-width="1280"
     inkscape:window-height="976"
     inkscape:window-x="0"
     inkscape:window-y="0"
     inkscape:window-maximized="1"
     fit-margin-top="0"
     fit-margin-left="0"
     fit-margin-right="0"
     fit-margin-bottom="0" />
  <metadata
     id="metadata5">
    <rdf:RDF>
      <cc:Work
         rdf:about="">
        <dc:format>image/svg+xml</dc:format>
        <dc:type
           rdf:resource="http://purl.org/dc/dcmitype/StillImage" />
        <dc:title></dc:title>
      </cc:Work>
    </rdf:RDF>
  </metadata>
  <g
     inkscape:label="Capa 1"
     inkscape:groupmode="layer"
     id="layer1"
     transform="translate(0,-244.08333)">
    <rect
       style="fill:none;fill-opacity:1;stroke:#aaccff;stroke-width:1.54126203;stroke-linejoin:round;stroke-miterlimit:4;stroke-dasharray:none"
       id="rect10"
       width="51.375404"
       height="51.375404"
       x="0.77063102"
       y="244.85396" />
    <g
       aria-label="Upload icon"
       style="font-style:normal;font-weight:normal;font-size:10.58333302px;line-height:6.61458302px;font-family:sans-serif;letter-spacing:0px;word-spacing:0px;fill:#aaccff;fill-opacity:1;stroke:none;stroke-width:0.26458332px;stroke-linecap:butt;stroke-linejoin:miter;stroke-opacity:1"
       id="text4472"
       transform="matrix(0.5468884,0,0,0.5468884,-31.612263,183.92785)">
      <path
         d="m 62.670974,187.78 q 0,1.4993 0.423334,2.52236 0.440972,1.00542 1.146527,1.56986 0.723195,0.54681 1.552223,0.77611 0.846666,0.21167 1.74625,0.21167 0.899583,0 1.728611,-0.21167 0.846667,-0.2293 1.552222,-0.77611 0.723195,-0.56444 1.146528,-1.56986 0.440972,-1.02306 0.440972,-2.52236 v -6.86153 q 0,-0.38805 -0.211666,-0.59972 -0.211667,-0.22931 -0.564445,-0.22931 -0.352778,0 -0.564444,0.22931 -0.211667,0.21167 -0.211667,0.59972 v 7.46125 q 0,1.46403 -0.917222,2.3107 -0.899584,0.82902 -2.398889,0.82902 -1.499306,0 -2.416528,-0.82902 -0.899583,-0.84667 -0.899583,-2.3107 v -7.46125 q 0,-0.38805 -0.211667,-0.59972 -0.211667,-0.22931 -0.564445,-0.22931 -0.352777,0 -0.564444,0.22931 -0.211667,0.21167 -0.211667,0.59972 z"
         style="font-style:normal;font-variant:normal;font-weight:normal;font-stretch:normal;font-size:17.63888931px;font-family:VAGRounded-Light;-inkscape-font-specification:VAGRounded-Light;stroke-width:0.26458332px;fill:#aaccff;fill-opacity:1"
         id="path4476"
         inkscape:connector-curvature="0" />
      <path
         d="m 75.917229,188.06222 q 0,-0.635 0.141111,-1.23472 0.141111,-0.59972 0.440972,-1.11125 0.3175,-0.51153 0.811389,-0.81139 0.493889,-0.29986 1.181805,-0.29986 0.687917,0 1.181806,0.29986 0.493889,0.29986 0.79375,0.81139 0.3175,0.51153 0.458611,1.11125 0.141111,0.59972 0.141111,1.23472 0,0.635 -0.141111,1.23472 -0.141111,0.59973 -0.458611,1.11125 -0.299861,0.51153 -0.79375,0.81139 -0.493889,0.29986 -1.181806,0.29986 -0.687916,0 -1.181805,-0.29986 -0.493889,-0.29986 -0.811389,-0.81139 -0.299861,-0.51152 -0.440972,-1.11125 -0.141111,-0.59972 -0.141111,-1.23472 z m -1.393473,7.67292 q 0,0.38805 0.211667,0.59972 0.211667,0.22931 0.564445,0.22931 0.352777,0 0.564444,-0.22931 0.211667,-0.21167 0.211667,-0.59972 V 191.59 h 0.03528 q 0.352778,0.51153 1.005417,0.89958 0.652639,0.37042 1.499306,0.37042 0.934861,0 1.675694,-0.38806 0.740834,-0.38805 1.27,-1.05833 0.529167,-0.68792 0.79375,-1.55222 0.264584,-0.86431 0.264584,-1.79917 0,-0.93486 -0.282223,-1.79917 -0.264583,-0.8643 -0.776111,-1.53458 -0.511528,-0.68792 -1.27,-1.07597 -0.740833,-0.38806 -1.675694,-0.38806 -1.834445,0 -2.504723,1.28764 h -0.03528 v -0.45861 q 0,-0.38805 -0.211667,-0.59972 -0.211667,-0.22931 -0.564444,-0.22931 -0.352778,0 -0.564445,0.22931 -0.211667,0.21167 -0.211667,0.59972 z"
         style="font-style:normal;font-variant:normal;font-weight:normal;font-stretch:normal;font-size:17.63888931px;font-family:VAGRounded-Light;-inkscape-font-specification:VAGRounded-Light;stroke-width:0.26458332px;fill:#aaccff;fill-opacity:1"
         id="path4478"
         inkscape:connector-curvature="0" />
      <path
         d="m 85.823947,179.96597 q 0,-0.38805 -0.211667,-0.59972 -0.211667,-0.22931 -0.564445,-0.22931 -0.352777,0 -0.564444,0.22931 -0.211667,0.21167 -0.211667,0.59972 v 12.065 q 0,0.38806 0.211667,0.61736 0.211667,0.21167 0.564444,0.21167 0.352778,0 0.564445,-0.21167 0.211667,-0.2293 0.211667,-0.61736 z"
         style="font-style:normal;font-variant:normal;font-weight:normal;font-stretch:normal;font-size:17.63888931px;font-family:VAGRounded-Light;-inkscape-font-specification:VAGRounded-Light;stroke-width:0.26458332px;fill:#aaccff;fill-opacity:1"
         id="path4480"
         inkscape:connector-curvature="0" />
      <path
         d="m 87.448929,188.06222 q 0,0.93486 0.264583,1.79917 0.282222,0.8643 0.811389,1.55222 0.546806,0.67028 1.305278,1.05833 0.776111,0.38806 1.74625,0.38806 0.970139,0 1.728611,-0.38806 0.776111,-0.38805 1.305278,-1.05833 0.546806,-0.68792 0.811389,-1.55222 0.282222,-0.86431 0.282222,-1.79917 0,-0.93486 -0.282222,-1.79917 -0.264583,-0.8643 -0.811389,-1.53458 -0.529167,-0.68792 -1.305278,-1.07597 -0.758472,-0.38806 -1.728611,-0.38806 -0.970139,0 -1.74625,0.38806 -0.758472,0.38805 -1.305278,1.07597 -0.529167,0.67028 -0.811389,1.53458 -0.264583,0.86431 -0.264583,1.79917 z m 1.552222,0 q 0,-0.635 0.141111,-1.23472 0.141111,-0.59972 0.440972,-1.11125 0.317501,-0.51153 0.811389,-0.81139 0.493889,-0.29986 1.181806,-0.29986 0.687917,0 1.181806,0.29986 0.493888,0.29986 0.79375,0.81139 0.3175,0.51153 0.458611,1.11125 0.141111,0.59972 0.141111,1.23472 0,0.635 -0.141111,1.23472 -0.141111,0.59973 -0.458611,1.11125 -0.299862,0.51153 -0.79375,0.81139 -0.493889,0.29986 -1.181806,0.29986 -0.687917,0 -1.181806,-0.29986 -0.493888,-0.29986 -0.811389,-0.81139 -0.299861,-0.51152 -0.440972,-1.11125 -0.141111,-0.59972 -0.141111,-1.23472 z"
         style="font-style:normal;font-variant:normal;font-weight:normal;font-stretch:normal;font-size:17.63888931px;font-family:VAGRounded-Light;-inkscape-font-specification:VAGRounded-Light;stroke-width:0.26458332px;fill:#aaccff;fill-opacity:1"
         id="path4482"
         inkscape:connector-curvature="0" />
      <path
         d="m 105.08975,184.02292 q 0,-0.37042 -0.22931,-0.56445 -0.2293,-0.19403 -0.49389,-0.19403 -0.28222,0 -0.51153,0.19403 -0.21166,0.19403 -0.21166,0.56445 v 0.49388 h -0.0353 q -0.56444,-0.635 -1.18181,-0.93486 -0.59972,-0.3175 -1.37583,-0.3175 -0.97014,0 -1.746249,0.38806 -0.758472,0.38805 -1.305277,1.07597 -0.529167,0.67028 -0.811389,1.53458 -0.264584,0.86431 -0.264584,1.79917 0,0.93486 0.264584,1.79917 0.282222,0.8643 0.811389,1.55222 0.546805,0.67028 1.305277,1.05833 0.776109,0.38806 1.746249,0.38806 1.56986,0 2.55764,-1.41111 h 0.0353 v 0.65264 q 0,0.37041 0.21166,0.56444 0.22931,0.19403 0.51153,0.19403 0.26459,0 0.49389,-0.19403 0.22931,-0.19403 0.22931,-0.56444 z m -6.614586,4.0393 q 0,-0.635 0.141111,-1.23472 0.141111,-0.59972 0.440972,-1.11125 0.3175,-0.51153 0.811389,-0.81139 0.493884,-0.29986 1.181804,-0.29986 0.68792,0 1.18181,0.29986 0.49389,0.29986 0.79375,0.81139 0.3175,0.51153 0.45861,1.11125 0.14111,0.59972 0.14111,1.23472 0,0.635 -0.14111,1.23472 -0.14111,0.59973 -0.45861,1.11125 -0.29986,0.51153 -0.79375,0.81139 -0.49389,0.29986 -1.18181,0.29986 -0.68792,0 -1.181804,-0.29986 -0.493889,-0.29986 -0.811389,-0.81139 -0.299861,-0.51152 -0.440972,-1.11125 -0.141111,-0.59972 -0.141111,-1.23472 z"
         style="font-style:normal;font-variant:normal;font-weight:normal;font-stretch:normal;font-size:17.63888931px;font-family:VAGRounded-Light;-inkscape-font-specification:VAGRounded-Light;stroke-width:0.26458332px;fill:#aaccff;fill-opacity:1"
         id="path4484"
         inkscape:connector-curvature="0" />
      <path
         d="m 113.44424,188.06222 q 0,0.635 -0.14111,1.23472 -0.14111,0.59973 -0.45861,1.11125 -0.29986,0.51153 -0.79375,0.81139 -0.49389,0.29986 -1.18181,0.29986 -0.68791,0 -1.1818,-0.29986 -0.49389,-0.29986 -0.81139,-0.81139 -0.29986,-0.51152 -0.44097,-1.11125 -0.14111,-0.59972 -0.14111,-1.23472 0,-0.635 0.14111,-1.23472 0.14111,-0.59972 0.44097,-1.11125 0.3175,-0.51153 0.81139,-0.81139 0.49389,-0.29986 1.1818,-0.29986 0.68792,0 1.18181,0.29986 0.49389,0.29986 0.79375,0.81139 0.3175,0.51153 0.45861,1.11125 0.14111,0.59972 0.14111,1.23472 z m -0.15875,3.96875 q 0,0.38806 0.21167,0.61736 0.21167,0.21167 0.56444,0.21167 0.35278,0 0.56445,-0.21167 0.21166,-0.2293 0.21166,-0.61736 v -12.065 q 0,-0.38805 -0.21166,-0.59972 -0.21167,-0.22931 -0.56445,-0.22931 -0.35277,0 -0.56444,0.22931 -0.21167,0.21167 -0.21167,0.59972 v 4.56847 h -0.0353 q -0.35277,-0.51152 -1.00541,-0.88194 -0.65264,-0.38806 -1.49931,-0.38806 -0.93486,0 -1.67569,0.38806 -0.74084,0.38805 -1.27,1.07597 -0.51153,0.67028 -0.79375,1.53458 -0.26459,0.86431 -0.26459,1.79917 0,0.93486 0.26459,1.79917 0.28222,0.8643 0.79375,1.55222 0.51153,0.67028 1.25236,1.05833 0.75847,0.38806 1.69333,0.38806 1.83445,0 2.50472,-1.28764 h 0.0353 z"
         style="font-style:normal;font-variant:normal;font-weight:normal;font-stretch:normal;font-size:17.63888931px;font-family:VAGRounded-Light;-inkscape-font-specification:VAGRounded-Light;stroke-width:0.26458332px;fill:#aaccff;fill-opacity:1"
         id="path4486"
         inkscape:connector-curvature="0" />
      <path
         d="m 122.92763,184.09347 q 0,-0.38805 -0.21167,-0.59972 -0.21167,-0.22931 -0.56444,-0.22931 -0.35278,0 -0.56445,0.22931 -0.21167,0.21167 -0.21167,0.59972 v 7.9375 q 0,0.38806 0.21167,0.61736 0.21167,0.21167 0.56445,0.21167 0.35277,0 0.56444,-0.21167 0.21167,-0.2293 0.21167,-0.61736 z m -1.72861,-3.05153 q 0,0.38806 0.28222,0.67028 0.28222,0.28222 0.67028,0.28222 0.38805,0 0.67027,-0.28222 0.28223,-0.28222 0.28223,-0.67028 0,-0.38805 -0.28223,-0.67027 -0.28222,-0.28223 -0.67027,-0.28223 -0.38806,0 -0.67028,0.28223 -0.28222,0.28222 -0.28222,0.67027 z"
         style="font-style:normal;font-variant:normal;font-weight:normal;font-stretch:normal;font-size:17.63888931px;font-family:VAGRounded-Light;-inkscape-font-specification:VAGRounded-Light;stroke-width:0.26458332px;fill:#aaccff;fill-opacity:1"
         id="path4488"
         inkscape:connector-curvature="0" />
      <path
         d="m 124.55261,188.06222 q 0,0.9525 0.26458,1.81681 0.26458,0.8643 0.79375,1.53458 0.52917,0.67028 1.32292,1.05833 0.81139,0.38806 1.85208,0.38806 1.12889,0 1.79917,-0.37042 0.67027,-0.37041 0.67027,-0.84666 0,-0.65264 -0.59972,-0.65264 -0.19403,0 -0.56444,0.19402 -0.29986,0.15875 -0.59972,0.24695 -0.28223,0.0882 -0.70556,0.0882 -0.68792,0 -1.19944,-0.29986 -0.51153,-0.29986 -0.84667,-0.81139 -0.33514,-0.51152 -0.49389,-1.11125 -0.14111,-0.61736 -0.14111,-1.23472 0,-0.61736 0.14111,-1.21708 0.15875,-0.61736 0.49389,-1.12889 0.33514,-0.51153 0.84667,-0.81139 0.51152,-0.29986 1.19944,-0.29986 0.40569,0 0.65264,0.0882 0.26458,0.0706 0.56444,0.21167 0.4057,0.19403 0.67028,0.19403 0.26458,0 0.44097,-0.19403 0.19403,-0.21167 0.19403,-0.45861 0,-0.49389 -0.68792,-0.82903 -0.68791,-0.35278 -1.83444,-0.35278 -1.04069,0 -1.85208,0.38806 -0.79375,0.38805 -1.32292,1.05833 -0.52917,0.67028 -0.79375,1.53459 -0.26458,0.8643 -0.26458,1.8168 z"
         style="font-style:normal;font-variant:normal;font-weight:normal;font-stretch:normal;font-size:17.63888931px;font-family:VAGRounded-Light;-inkscape-font-specification:VAGRounded-Light;stroke-width:0.26458332px;fill:#aaccff;fill-opacity:1"
         id="path4490"
         inkscape:connector-curvature="0" />
      <path
         d="m 132.37298,188.06222 q 0,0.93486 0.26458,1.79917 0.28222,0.8643 0.81139,1.55222 0.5468,0.67028 1.30528,1.05833 0.77611,0.38806 1.74625,0.38806 0.97014,0 1.72861,-0.38806 0.77611,-0.38805 1.30528,-1.05833 0.5468,-0.68792 0.81138,-1.55222 0.28223,-0.86431 0.28223,-1.79917 0,-0.93486 -0.28223,-1.79917 -0.26458,-0.8643 -0.81138,-1.53458 -0.52917,-0.68792 -1.30528,-1.07597 -0.75847,-0.38806 -1.72861,-0.38806 -0.97014,0 -1.74625,0.38806 -0.75848,0.38805 -1.30528,1.07597 -0.52917,0.67028 -0.81139,1.53458 -0.26458,0.86431 -0.26458,1.79917 z m 1.55222,0 q 0,-0.635 0.14111,-1.23472 0.14111,-0.59972 0.44097,-1.11125 0.3175,-0.51153 0.81139,-0.81139 0.49389,-0.29986 1.18181,-0.29986 0.68791,0 1.1818,0.29986 0.49389,0.29986 0.79375,0.81139 0.3175,0.51153 0.45861,1.11125 0.14111,0.59972 0.14111,1.23472 0,0.635 -0.14111,1.23472 -0.14111,0.59973 -0.45861,1.11125 -0.29986,0.51153 -0.79375,0.81139 -0.49389,0.29986 -1.1818,0.29986 -0.68792,0 -1.18181,-0.29986 -0.49389,-0.29986 -0.81139,-0.81139 -0.29986,-0.51152 -0.44097,-1.11125 -0.14111,-0.59972 -0.14111,-1.23472 z"
         style="font-style:normal;font-variant:normal;font-weight:normal;font-stretch:normal;font-size:17.63888931px;font-family:VAGRounded-Light;-inkscape-font-specification:VAGRounded-Light;stroke-width:0.26458332px;fill:#aaccff;fill-opacity:1"
         id="path4492"
         inkscape:connector-curvature="0" />
      <path
         d="m 142.25268,192.03097 q 0,0.38806 0.21166,0.61736 0.21167,0.21167 0.56445,0.21167 0.35278,0 0.56444,-0.21167 0.21167,-0.2293 0.21167,-0.61736 v -5.11528 q 0,-1.14652 0.65264,-1.72861 0.65264,-0.58208 1.51694,-0.58208 0.86431,0 1.51695,0.58208 0.65264,0.58209 0.65264,1.72861 v 5.11528 q 0,0.38806 0.21166,0.61736 0.21167,0.21167 0.56445,0.21167 0.35278,0 0.56444,-0.21167 0.21167,-0.2293 0.21167,-0.61736 v -5.20347 q 0,-0.9525 -0.29986,-1.64042 -0.28222,-0.68791 -0.77611,-1.11125 -0.47625,-0.42333 -1.0407,-0.61736 -0.56444,-0.19403 -1.14653,-0.19403 -0.74083,0 -1.42875,0.29986 -0.67027,0.29987 -1.16416,0.93487 l -0.0353,-0.0353 v -0.37042 q 0,-0.38805 -0.21167,-0.59972 -0.21166,-0.22931 -0.56444,-0.22931 -0.35278,0 -0.56445,0.22931 -0.21166,0.21167 -0.21166,0.59972 z"
         style="font-style:normal;font-variant:normal;font-weight:normal;font-stretch:normal;font-size:17.63888931px;font-family:VAGRounded-Light;-inkscape-font-specification:VAGRounded-Light;stroke-width:0.26458332px;fill:#aaccff;fill-opacity:1"
         id="path4494"
         inkscape:connector-curvature="0" />
    </g>
    <g
       id="transfer-to-image"
       display="block"
       transform="matrix(0.49227382,0,0,0.49227382,12.059323,251.35298)"
       style="display:block">
      <g
         id="g6560"
         display="inline"
         style="display:inline">
        <polygon
           id="polygon6558"
           points="1.75,20.038 8.443,21.866 8.443,52.581 50.067,52.58 50.067,21.866 56.75,20.039 29.248,2 "
           style="fill:#ffffff;stroke:#aaccff;stroke-width:3.13090396;stroke-linejoin:round;stroke-miterlimit:4;stroke-dasharray:none" />
      </g>
      <g
         id="g6568"
         display="inline"
         style="display:inline">
        <g
           id="g6566">
          <polygon
             id="polygon6562"
             points="15.204,19.812 15.204,41.189 43.041,41.189 43.041,27.577 35.281,19.812 "
             style="fill:none;stroke:#aaccff;stroke-width:2.2750001" />
          <polyline
             id="polyline6564"
             points="35.281,19.812 35.281,27.577 43.041,27.577    "
             style="fill:#000000;stroke:#aaccff;stroke-width:2.2750001;fill-opacity:0" />
        </g>
      </g>
      <path
         id="path6570"
         display="inline"
         d="m 29.206,27.798 c -4.067,0 -7.456,4.056 -7.456,4.056 0,0 3.389,4.076 7.456,4.074 4.069,-0.004 7.458,-4.078 7.458,-4.078 0,0 -3.389,-4.055 -7.458,-4.052 z m 0,6.917 c -1.575,0 -2.852,-1.277 -2.852,-2.853 0,-1.572 1.277,-2.853 2.852,-2.853 1.573,0 2.85,1.28 2.85,2.853 0,1.576 -1.277,2.853 -2.85,2.853 z"
         inkscape:connector-curvature="0"
         style="display:inline;fill:#aaccff;fill-opacity:1" />
      <circle
         id="circle6572"
         r="1.294"
         display="inline"
         cy="31.863001"
         cx="29.207001"
         style="display:inline;fill:#aaccff;fill-opacity:1" />
    </g>
  </g>
</svg>
